<?xml version="1.0" encoding="utf-8"?>
<!-- Generator: Adobe Illustrator 24.2.1, SVG Export Plug-In . SVG Version: 6.00 Build 0)  -->
<svg version="1.1" id="Layer_1" xmlns="http://www.w3.org/2000/svg" xmlns:xlink="http://www.w3.org/1999/xlink" x="0px" y="0px"
	 viewBox="0 0 80 80" style="enable-background:new 0 0 80 80;" xml:space="preserve">
<style type="text/css">
	.st0{fill:#4A696F;}
	.st1{fill:#3E5959;}
	.st2{fill:#7FBDC6;}
	.st3{fill:#FFFFFF;}
	.st4{fill:#FDE93B;}
</style>
<g>
	<path class="st0" d="M61.1,21.6c-0.3-0.7-1.1-0.9-1.8-0.5c-1.3,0.6-2,1.6-2.3,3c-0.1,0.2-0.1,0.4-0.1,0.5c-0.1,0.2-0.1,0.5-0.1,0.8
		c-0.1,0.3-0.1,0.6-0.1,1c0.8-0.4,1.7-0.4,2.5-0.1c0-0.2,0-0.4,0-0.6l0,0c0.1-0.2,0.1-0.5,0.1-0.7c0.1-0.2,0.1-0.4,0.2-0.7
		c0.2-0.3,0.5-0.6,0.8-0.8C61.2,23,61.5,22.3,61.1,21.6z"/>
	<path class="st0" d="M59.4,36c-0.8,0-1.7,0-2.5,0c0,3.8,0,7.6,0,11.4c0,0.2,0,0.5,0,0.7c-0.2,1.1-1.2,1.8-2.3,1.7
		c-1.1-0.1-1.9-1-1.9-2.1c0-1.7,0-3.5,0-5.2c0-1.2-0.3-2.3-1-3.3c-0.1-0.3-0.3-0.5-0.5-0.7c-0.1-0.2-0.3-0.4-0.5-0.5
		c-0.1-0.2-0.3-0.3-0.4-0.4c-0.2-0.2-0.4-0.3-0.6-0.4c-0.2-0.2-0.4-0.3-0.6-0.3c-0.2-0.1-0.4-0.2-0.6-0.2c-0.2-0.1-0.4-0.1-0.6-0.2
		c0,0.8,0,1.5,0,2.3c0,0.2,0,0.3,0.1,0.4c0.1,0,0.3,0.1,0.4,0.1c0.2,0.1,0.3,0.2,0.5,0.3c0.2,0.2,0.4,0.4,0.7,0.6
		c0.2,0.3,0.4,0.6,0.5,0.9c0.3,0.7,0.3,1.5,0.3,2.3c0,1.5,0,2.9,0,4.4c0,0.2-0.1,0.5,0.1,0.7c0,0,0,0,0,0c0,0.2,0,0.5,0.1,0.7
		c0.1,0.3,0.2,0.7,0.4,1c0.1,0.3,0.4,0.6,0.6,0.8c1.1,1.3,3.2,1.8,4.9,1.2c1.8-0.6,3.1-2.3,3.1-4.1C59.4,44,59.4,40,59.4,36z"/>
	<path class="st1" d="M61.1,32.9c0-0.8,0-1.6,0-2.4c0-0.9,0.1-1.7-0.2-2.6c-0.2-0.8-0.9-1.3-1.6-1.7c-0.7-0.5-2-0.5-2.5,0.1
		c-0.6,0.4-1.2,0.9-1.4,1.6c-0.4,0.8-0.2,1.7-0.2,2.6c0,0.8,0,1.6,0,2.4c0,0.1,0,0.2,0,0.3c0,0.2,0,0.4,0.1,0.6c0,0,0,0,0,0
		c0,0.4,0.2,0.7,0.4,1c0.2,0.6,0.8,0.8,1.2,1.1c0.8,0.3,1.7,0.3,2.5,0c0.5-0.3,0.8-0.7,1.2-1.1c0.3-0.3,0.4-0.7,0.4-1.1
		c0.1-0.2,0.1-0.4,0.1-0.6C61.1,33.1,61.1,33,61.1,32.9z"/>
	<rect x="20.5" y="35.7" class="st1" width="27.7" height="24.3"/>
	<path class="st2" d="M48.2,20.1v15.6H20.5V20.1c0-2.9,2.3-5.2,5.2-5.2H43C45.9,14.9,48.2,17.2,48.2,20.1z"/>
	<path class="st3" d="M43,22.7v5.2c0,0.5-0.4,0.9-0.9,0.9H26.5c-0.5,0-0.9-0.4-0.9-0.9v-5.2c0-0.5,0.4-0.9,0.9-0.9h15.6
		C42.6,21.8,43,22.2,43,22.7z"/>
	<path class="st2" d="M49.9,59.9v4c0,0.7-0.6,1.2-1.2,1.2H20c-0.7,0-1.2-0.6-1.2-1.2v-4h1.7h27.7H49.9z"/>
	<path class="st4" d="M37.1,48.6c0,0.5,0,0.9-0.2,1.3c-0.2,0.8-0.7,1.3-1.6,1.5c-0.6,0.1-1.2,0.1-1.7,0c-0.8-0.2-1.3-0.8-1.5-1.6
		c-0.3-1.1-0.1-2.1,0.4-3.1c0.5-1.2,1.2-2.2,2-3.2c0-0.1,0.1-0.1,0.1,0c0.9,1.2,1.7,2.4,2.2,3.8C37,47.6,37.1,48.1,37.1,48.6z"/>
</g>
</svg>
